<mxfile host="Electron" agent="Mozilla/5.0 (Windows NT 10.0; Win64; x64) AppleWebKit/537.36 (KHTML, like Gecko) draw.io/26.2.2 Chrome/134.0.6998.178 Electron/35.1.2 Safari/537.36" version="26.2.2">
  <diagram name="ページ1" id="kAhFRRGw9KrS2ma5Ec_p">
    <mxGraphModel dx="2091" dy="963" grid="1" gridSize="10" guides="1" tooltips="1" connect="1" arrows="1" fold="1" page="1" pageScale="1" pageWidth="827" pageHeight="1169" math="0" shadow="0">
      <root>
        <mxCell id="0" />
        <mxCell id="1" parent="0" />
        <mxCell id="mmRGScHMftIIaNF_ctDc-1" value="" style="rounded=0;whiteSpace=wrap;html=1;" parent="1" vertex="1">
          <mxGeometry x="-567" y="33.85" width="370" height="586.15" as="geometry" />
        </mxCell>
        <mxCell id="Jy74stG3QESG501yjx2Y-1" value="ネットワーク対戦型リバーシシステム(クライアント)" style="text;html=1;align=center;verticalAlign=middle;whiteSpace=wrap;rounded=0;" parent="1" vertex="1">
          <mxGeometry x="-531" y="10" width="298" height="30" as="geometry" />
        </mxCell>
        <mxCell id="zhUCHh0kc8Vl42u5xUzM-3" value="" style="shape=image;verticalLabelPosition=bottom;labelBackgroundColor=default;verticalAlign=top;aspect=fixed;imageAspect=0;image=data:image/png,iVBORw0KGgoAAAANSUhEUgAAAGsAAACoCAMAAADQHeAkAAAAAXNSR0IArs4c6QAAAARnQU1BAACxjwv8YQUAAABsUExURQAAAAAAAAAAAAAAAAAAAAAAAAAAAAAAAAAAAAAAAAAAAAAAAAAAAAAAAAAAAAAAAAAAAAAAAAAAAAAAAAAAAAAAAAAAAAAAAAAAAAAAAAAAAAAAAAAAAAAAAAAAAAAAAAAAAAAAAAAAAAAAAHQi/6oAAAAkdFJOUwAQYIC3v2ggcP/Phyj3QK+nGOdYCFCX7484MN/HSHif1/T5ShR0x1IAAAAJcEhZcwAAFxEAABcRAcom8z8AAALXSURBVHhe7Zprd6IwEIZBQHjRoKYo1vvu/v//uIe6be3IZZIJnv0wz5eevqU8kssk5BhFiqIoiqIo/xfxLEnSLMuSZJ7TvwUlLzI8UC6W9IpQxAsDIEuKqqqqebJqf1tv6FVBKCzM+i3+DurtroFJHpJAbEpg9dRD8R6w7zQVcrA4VjRsWZ5g3mgoYmtw6umZeg0kNBTwbrCuafhFARQ08ya3WNPskTlwppkndYlT/1O17NEEmmkFjj199UWKlEZebCwONKNsDLY082GPFY2euaCkkQe5MWMt2PapDfFgCa406qLgPP0YJ94HzmGGxyqDDfcepXyOzbmjOcGeRq4k3PpTyTvsCmYVX+JEI1dSdC4lz8SwNHKlxNMC2YMBTVy5sV1W7MrAXeLR0MSVK28qt5P5RiNXFpjTqJsKGY1cufDKYTvpmRf2c+AO5QwzGjlz5A2O2ICx9Iyw4+3I3uRlI4rOsJxCX+JCIw9STvXdwsqbsB0d45uAuuR8IAa78dXiwmvocTYNFjT7yRnc6jLKFsOL2LKRr8lfXGAGNhPLI3efwOI68CpSNSiDvlvugV1371+ALKgqimYGtqPin0sE7KtPqhK4Pb6at4MmA+zgsPFlZgGkRXVvy2rWHjo0SXfLiqnnp/shir3df96S0YoiIJ6tsw+RzdKJD4n+AfGWiY+65KhLjrqGeTw8FkJv/QT9BwH01l4Eug0LdclRlxx1yVGXHHXJUZccdclRlxx1ialf56pTIPApXh91il+/w55O9lGnaP4cAx+FdtOqDlH+CtldFb1C9ql6gexbNbnsUTWx7KdqUhlVTSh7Vk0m61JNJOtWTSLrU00g61cFlw2pAsuGVUFlY6qAsnFVMBlHFUjGUwWRcVUBZHyVWOaiEsrcVCKZq0ogc1d5y3xUnjI/lZfMV+Uh81e5ywp/lbts76/6kIX/6kMfec9XPRRFURRFURRFUTj8BWdiLXcAVgaNAAAAAElFTkSuQmCC;" parent="1" vertex="1">
          <mxGeometry x="-75.48" y="145.63" width="50.95" height="80" as="geometry" />
        </mxCell>
        <mxCell id="zhUCHh0kc8Vl42u5xUzM-4" value="" style="shape=image;verticalLabelPosition=bottom;labelBackgroundColor=default;verticalAlign=top;aspect=fixed;imageAspect=0;image=data:image/png,iVBORw0KGgoAAAANSUhEUgAAACgAAAB6CAMAAAD6ZuGjAAAAAXNSR0IArs4c6QAAAARnQU1BAACxjwv8YQUAAAA/UExURQAAAAAAAAAAAAAAAAAAAAAAAAAAAAAAAAAAAAAAAAAAAAAAAAAAAAAAAAAAAAAAAAAAAAAAAAAAAAAAAAAAALMlgi8AAAAVdFJOUwAwUK/PSP9w5wj3148Y30Boh5e/IK24EEAAAAAJcEhZcwAAFxEAABcRAcom8z8AAAENSURBVFhH7ZTbcoQgEERBSQvGzWWT///WFCwqDjOzVOVpq+a82TZHKUad+wd+oonAHGjC8wYsNGMJQEw0ZJiwvg8pA7ZpRDlhvbkwoCydAWWtPFfWxlPlUQjY6L2W9LE/8jPvSWY5nzhryhTPPXhN2QhVZYr4Oq8U5YLLfInKFHGZWFFJhFk5X4MHVJiV8Nek8E2Fzt055W2lwpL1yq0X5rBTckJWueGHJIVOySwtdHm3coe8erfwgLy7KCRKLwrJgQmH+qAZAeFMK41SFTZKj/WX3mw5lOIk79RPSRzkg/pxzhggprzlEbh/FkATASuqWFHFiipWVLGiihVVrKhiRRUrqlhRxYoqr1Dk+QOPswwfm6MgfQAAAABJRU5ErkJggg==;" parent="1" vertex="1">
          <mxGeometry x="-447" y="305" width="30.95" height="94.4" as="geometry" />
        </mxCell>
        <mxCell id="zhUCHh0kc8Vl42u5xUzM-5" value="" style="shape=image;verticalLabelPosition=bottom;labelBackgroundColor=default;verticalAlign=top;aspect=fixed;imageAspect=0;image=data:image/png,iVBORw0KGgoAAAANSUhEUgAAABoAAABpCAMAAAATIsOTAAAAAXNSR0IArs4c6QAAAARnQU1BAACxjwv8YQUAAABOUExURQAAAAAAAAAAAAAAAAAAAAAAAAAAAAAAAAAAAAAAAAAAAAAAAAAAAAAAAAAAAAAAAAAAAAAAAAAAAAAAAAAAAAAAAAAAAAAAAAAAAAAAAMSiplkAAAAadFJOUwAYSI/P9/9QCO9wp7/HMN8g1yhAt59ggGiXJeb+JwAAAAlwSFlzAAAXEQAAFxEByibzPwAAAJRJREFUSEvtldsOgjAUBKmlK+JRFOTi//+ogfSQZmlfiYHOy0l2Mq9tUWT2wlx4WbElL4pxuPLmsUAiMw5IZBZIZEsUz5YomvkolvkoklU3VZusXs0mu4uIODzm8yQ30+DFk/L/6o2WJ0XQ8aRkFXJU9UHy4egx8KRkFXJCNWLkSckq5IRqwpcnZUDPk3JUZbrw8/0BFJIQXWC3nMoAAAAASUVORK5CYII=;" parent="1" vertex="1">
          <mxGeometry x="-762.05" y="315" width="26" height="105" as="geometry" />
        </mxCell>
        <mxCell id="zhUCHh0kc8Vl42u5xUzM-8" value="&lt;p style=&quot;language:ja;margin-top:7.2pt;margin-bottom:0pt;text-align:left;&lt;br/&gt;direction:ltr;unicode-bidi:embed;vertical-align:baseline;mso-line-break-override:&lt;br/&gt;none;punctuation-wrap:hanging&quot;&gt;&lt;span style=&quot;font-size: 12pt; font-family: &amp;quot;Times New Roman&amp;quot;;&quot;&gt;&amp;lt;&amp;lt;include&amp;gt;&amp;gt;&lt;/span&gt;&lt;/p&gt;" style="text;html=1;align=center;verticalAlign=middle;whiteSpace=wrap;rounded=0;" parent="1" vertex="1">
          <mxGeometry x="-827" y="445" width="130" height="30" as="geometry" />
        </mxCell>
        <mxCell id="zhUCHh0kc8Vl42u5xUzM-9" value="&lt;p style=&quot;language:ja;margin-top:7.2pt;margin-bottom:0pt;text-align:left;&lt;br/&gt;direction:ltr;unicode-bidi:embed;vertical-align:baseline;mso-line-break-override:&lt;br/&gt;none;punctuation-wrap:hanging&quot;&gt;&lt;span style=&quot;font-size: 12pt; font-family: &amp;quot;Times New Roman&amp;quot;;&quot;&gt;&amp;lt;&amp;lt;extend&amp;gt;&amp;gt;&lt;/span&gt;&lt;/p&gt;" style="text;html=1;align=center;verticalAlign=middle;whiteSpace=wrap;rounded=0;" parent="1" vertex="1">
          <mxGeometry x="-827" y="405" width="130" height="50" as="geometry" />
        </mxCell>
        <mxCell id="zhUCHh0kc8Vl42u5xUzM-10" value="" style="shape=image;verticalLabelPosition=bottom;labelBackgroundColor=default;verticalAlign=top;aspect=fixed;imageAspect=0;image=data:image/png,iVBORw0KGgoAAAANSUhEUgAAAGsAAACoCAMAAADQHeAkAAAAAXNSR0IArs4c6QAAAARnQU1BAACxjwv8YQUAAABsUExURQAAAAAAAAAAAAAAAAAAAAAAAAAAAAAAAAAAAAAAAAAAAAAAAAAAAAAAAAAAAAAAAAAAAAAAAAAAAAAAAAAAAAAAAAAAAAAAAAAAAAAAAAAAAAAAAAAAAAAAAAAAAAAAAAAAAAAAAAAAAAAAAHQi/6oAAAAkdFJOUwAQYIC3v2ggcP/Phyj3QK+nGOdYCFCX7484MN/HSHif1/T5ShR0x1IAAAAJcEhZcwAAFxEAABcRAcom8z8AAALXSURBVHhe7Zprd6IwEIZBQHjRoKYo1vvu/v//uIe6be3IZZIJnv0wz5eevqU8kssk5BhFiqIoiqIo/xfxLEnSLMuSZJ7TvwUlLzI8UC6W9IpQxAsDIEuKqqqqebJqf1tv6FVBKCzM+i3+DurtroFJHpJAbEpg9dRD8R6w7zQVcrA4VjRsWZ5g3mgoYmtw6umZeg0kNBTwbrCuafhFARQ08ya3WNPskTlwppkndYlT/1O17NEEmmkFjj199UWKlEZebCwONKNsDLY082GPFY2euaCkkQe5MWMt2PapDfFgCa406qLgPP0YJ94HzmGGxyqDDfcepXyOzbmjOcGeRq4k3PpTyTvsCmYVX+JEI1dSdC4lz8SwNHKlxNMC2YMBTVy5sV1W7MrAXeLR0MSVK28qt5P5RiNXFpjTqJsKGY1cufDKYTvpmRf2c+AO5QwzGjlz5A2O2ICx9Iyw4+3I3uRlI4rOsJxCX+JCIw9STvXdwsqbsB0d45uAuuR8IAa78dXiwmvocTYNFjT7yRnc6jLKFsOL2LKRr8lfXGAGNhPLI3efwOI68CpSNSiDvlvugV1371+ALKgqimYGtqPin0sE7KtPqhK4Pb6at4MmA+zgsPFlZgGkRXVvy2rWHjo0SXfLiqnnp/shir3df96S0YoiIJ6tsw+RzdKJD4n+AfGWiY+65KhLjrqGeTw8FkJv/QT9BwH01l4Eug0LdclRlxx1yVGXHHXJUZccdclRlxx1ialf56pTIPApXh91il+/w55O9lGnaP4cAx+FdtOqDlH+CtldFb1C9ql6gexbNbnsUTWx7KdqUhlVTSh7Vk0m61JNJOtWTSLrU00g61cFlw2pAsuGVUFlY6qAsnFVMBlHFUjGUwWRcVUBZHyVWOaiEsrcVCKZq0ogc1d5y3xUnjI/lZfMV+Uh81e5ywp/lbts76/6kIX/6kMfec9XPRRFURRFURRFUTj8BWdiLXcAVgaNAAAAAElFTkSuQmCC;" parent="1" vertex="1">
          <mxGeometry x="-75.48" y="254.37999999999997" width="50.95" height="80" as="geometry" />
        </mxCell>
        <mxCell id="zhUCHh0kc8Vl42u5xUzM-11" value="先行プレイヤー&lt;br&gt;(クライアント)" style="text;html=1;align=center;verticalAlign=middle;whiteSpace=wrap;rounded=0;" parent="1" vertex="1">
          <mxGeometry x="-99.99999999999989" y="210" width="100" height="42.5" as="geometry" />
        </mxCell>
        <mxCell id="zhUCHh0kc8Vl42u5xUzM-12" value="後攻プレイヤー&lt;br&gt;(クライアント)" style="text;html=1;align=center;verticalAlign=middle;whiteSpace=wrap;rounded=0;" parent="1" vertex="1">
          <mxGeometry x="-100.00999999999989" y="325.65000000000003" width="100" height="30" as="geometry" />
        </mxCell>
        <mxCell id="EOFRrhvSht2Y6-4VyD7P-1" value="プレイ方法の選択" style="ellipse;whiteSpace=wrap;html=1;" parent="1" vertex="1">
          <mxGeometry x="-437" y="40" width="120" height="80" as="geometry" />
        </mxCell>
        <mxCell id="EOFRrhvSht2Y6-4VyD7P-60" value="サーバ" style="shape=umlActor;verticalLabelPosition=bottom;verticalAlign=top;html=1;outlineConnect=0;" parent="1" vertex="1">
          <mxGeometry x="-807" y="210" width="30" height="60" as="geometry" />
        </mxCell>
        <mxCell id="AxGwhmwCKyODIqatiKtB-2" value="ログイン" style="ellipse;whiteSpace=wrap;html=1;" parent="1" vertex="1">
          <mxGeometry x="-437" y="158.75" width="120" height="80" as="geometry" />
        </mxCell>
        <mxCell id="AxGwhmwCKyODIqatiKtB-3" value="" style="endArrow=classic;html=1;rounded=0;exitX=0.5;exitY=0;exitDx=0;exitDy=0;entryX=0.5;entryY=1;entryDx=0;entryDy=0;" parent="1" source="AxGwhmwCKyODIqatiKtB-2" target="EOFRrhvSht2Y6-4VyD7P-1" edge="1">
          <mxGeometry width="50" height="50" relative="1" as="geometry">
            <mxPoint x="-517" y="100" as="sourcePoint" />
            <mxPoint x="-467" y="50" as="targetPoint" />
          </mxGeometry>
        </mxCell>
        <mxCell id="AxGwhmwCKyODIqatiKtB-4" value="&lt;p style=&quot;language:ja;margin-top:7.2pt;margin-bottom:0pt;text-align:left;&lt;br/&gt;direction:ltr;unicode-bidi:embed;vertical-align:baseline;mso-line-break-override:&lt;br/&gt;none;punctuation-wrap:hanging&quot;&gt;&lt;span style=&quot;font-size: 12pt; font-family: &amp;quot;Times New Roman&amp;quot;;&quot;&gt;&amp;lt;&amp;lt;extend&amp;gt;&amp;gt;&lt;/span&gt;&lt;/p&gt;" style="text;html=1;align=center;verticalAlign=middle;whiteSpace=wrap;rounded=0;" parent="1" vertex="1">
          <mxGeometry x="-487" y="108.75" width="130" height="50" as="geometry" />
        </mxCell>
        <mxCell id="AxGwhmwCKyODIqatiKtB-5" value="対局する" style="ellipse;whiteSpace=wrap;html=1;" parent="1" vertex="1">
          <mxGeometry x="-437" y="245.64999999999998" width="120" height="80" as="geometry" />
        </mxCell>
        <mxCell id="AxGwhmwCKyODIqatiKtB-6" value="勝敗判定" style="ellipse;whiteSpace=wrap;html=1;" parent="1" vertex="1">
          <mxGeometry x="-437" y="535" width="120" height="80" as="geometry" />
        </mxCell>
        <mxCell id="AxGwhmwCKyODIqatiKtB-8" value="" style="endArrow=none;html=1;rounded=0;entryX=0;entryY=0.5;entryDx=0;entryDy=0;" parent="1" target="AxGwhmwCKyODIqatiKtB-2" edge="1">
          <mxGeometry width="50" height="50" relative="1" as="geometry">
            <mxPoint x="-757" y="240" as="sourcePoint" />
            <mxPoint x="-687" y="270" as="targetPoint" />
          </mxGeometry>
        </mxCell>
        <mxCell id="AxGwhmwCKyODIqatiKtB-15" value="プレイヤー名の送受信、先手後手送信" style="edgeLabel;html=1;align=center;verticalAlign=middle;resizable=0;points=[];" parent="AxGwhmwCKyODIqatiKtB-8" vertex="1" connectable="0">
          <mxGeometry x="-0.2964" y="1" relative="1" as="geometry">
            <mxPoint as="offset" />
          </mxGeometry>
        </mxCell>
        <mxCell id="AxGwhmwCKyODIqatiKtB-9" value="" style="endArrow=none;html=1;rounded=0;entryX=0;entryY=0;entryDx=0;entryDy=0;" parent="1" target="Hfg-YcZ6ocwzMSronJTK-2" edge="1">
          <mxGeometry width="50" height="50" relative="1" as="geometry">
            <mxPoint x="-757" y="260" as="sourcePoint" />
            <mxPoint x="-737" y="350" as="targetPoint" />
          </mxGeometry>
        </mxCell>
        <mxCell id="AxGwhmwCKyODIqatiKtB-18" value="設置場所送受信" style="edgeLabel;html=1;align=center;verticalAlign=middle;resizable=0;points=[];" parent="AxGwhmwCKyODIqatiKtB-9" vertex="1" connectable="0">
          <mxGeometry x="-0.1288" y="1" relative="1" as="geometry">
            <mxPoint as="offset" />
          </mxGeometry>
        </mxCell>
        <mxCell id="AxGwhmwCKyODIqatiKtB-11" value="" style="endArrow=none;html=1;rounded=0;exitX=1;exitY=0.5;exitDx=0;exitDy=0;" parent="1" source="AxGwhmwCKyODIqatiKtB-6" edge="1">
          <mxGeometry width="50" height="50" relative="1" as="geometry">
            <mxPoint x="-17" y="410" as="sourcePoint" />
            <mxPoint x="-110" y="300" as="targetPoint" />
          </mxGeometry>
        </mxCell>
        <mxCell id="AxGwhmwCKyODIqatiKtB-24" value="勝敗確認と終了選択" style="edgeLabel;html=1;align=center;verticalAlign=middle;resizable=0;points=[];" parent="AxGwhmwCKyODIqatiKtB-11" vertex="1" connectable="0">
          <mxGeometry x="-0.4501" y="-3" relative="1" as="geometry">
            <mxPoint as="offset" />
          </mxGeometry>
        </mxCell>
        <mxCell id="AxGwhmwCKyODIqatiKtB-12" value="" style="endArrow=none;html=1;rounded=0;exitX=1;exitY=0.5;exitDx=0;exitDy=0;" parent="1" source="AxGwhmwCKyODIqatiKtB-5" edge="1">
          <mxGeometry width="50" height="50" relative="1" as="geometry">
            <mxPoint x="-17" y="120" as="sourcePoint" />
            <mxPoint x="-110" y="270" as="targetPoint" />
          </mxGeometry>
        </mxCell>
        <mxCell id="AxGwhmwCKyODIqatiKtB-23" value="盤面閲覧、設置場所入力" style="edgeLabel;html=1;align=center;verticalAlign=middle;resizable=0;points=[];" parent="AxGwhmwCKyODIqatiKtB-12" vertex="1" connectable="0">
          <mxGeometry x="-0.2993" y="4" relative="1" as="geometry">
            <mxPoint as="offset" />
          </mxGeometry>
        </mxCell>
        <mxCell id="AxGwhmwCKyODIqatiKtB-13" value="" style="endArrow=none;html=1;rounded=0;exitX=1;exitY=0.5;exitDx=0;exitDy=0;" parent="1" source="AxGwhmwCKyODIqatiKtB-2" edge="1">
          <mxGeometry width="50" height="50" relative="1" as="geometry">
            <mxPoint x="-77" y="70" as="sourcePoint" />
            <mxPoint x="-110" y="240" as="targetPoint" />
          </mxGeometry>
        </mxCell>
        <mxCell id="AxGwhmwCKyODIqatiKtB-22" value="プレイヤー名入力" style="edgeLabel;html=1;align=center;verticalAlign=middle;resizable=0;points=[];" parent="AxGwhmwCKyODIqatiKtB-13" vertex="1" connectable="0">
          <mxGeometry x="-0.4494" y="-1" relative="1" as="geometry">
            <mxPoint as="offset" />
          </mxGeometry>
        </mxCell>
        <mxCell id="AxGwhmwCKyODIqatiKtB-14" value="" style="endArrow=none;html=1;rounded=0;exitX=1;exitY=0.5;exitDx=0;exitDy=0;" parent="1" source="EOFRrhvSht2Y6-4VyD7P-1" edge="1">
          <mxGeometry width="50" height="50" relative="1" as="geometry">
            <mxPoint x="-87" y="70" as="sourcePoint" />
            <mxPoint x="-110" y="210" as="targetPoint" />
          </mxGeometry>
        </mxCell>
        <mxCell id="AxGwhmwCKyODIqatiKtB-21" value="プレイ方法、CPUの強さの選択" style="edgeLabel;html=1;align=center;verticalAlign=middle;resizable=0;points=[];" parent="AxGwhmwCKyODIqatiKtB-14" vertex="1" connectable="0">
          <mxGeometry x="-0.4017" y="4" relative="1" as="geometry">
            <mxPoint as="offset" />
          </mxGeometry>
        </mxCell>
        <mxCell id="AxGwhmwCKyODIqatiKtB-26" value="" style="endArrow=classic;html=1;rounded=0;entryX=0.5;entryY=1;entryDx=0;entryDy=0;exitX=0.5;exitY=0;exitDx=0;exitDy=0;" parent="1" source="AxGwhmwCKyODIqatiKtB-6" target="AxGwhmwCKyODIqatiKtB-5" edge="1">
          <mxGeometry width="50" height="50" relative="1" as="geometry">
            <mxPoint x="-577" y="580" as="sourcePoint" />
            <mxPoint x="-527" y="530" as="targetPoint" />
          </mxGeometry>
        </mxCell>
        <mxCell id="AxGwhmwCKyODIqatiKtB-28" value="&lt;p style=&quot;language:ja;margin-top:7.2pt;margin-bottom:0pt;text-align:left;&lt;br/&gt;direction:ltr;unicode-bidi:embed;vertical-align:baseline;mso-line-break-override:&lt;br/&gt;none;punctuation-wrap:hanging&quot;&gt;&lt;span style=&quot;font-size: 12pt; font-family: &amp;quot;Times New Roman&amp;quot;;&quot;&gt;&amp;lt;&amp;lt;extend&amp;gt;&amp;gt;&lt;/span&gt;&lt;/p&gt;" style="text;html=1;align=center;verticalAlign=middle;whiteSpace=wrap;rounded=0;" parent="1" vertex="1">
          <mxGeometry x="-486.99999999999994" y="500" width="130" height="50" as="geometry" />
        </mxCell>
        <mxCell id="Hfg-YcZ6ocwzMSronJTK-1" value="CPUと対局" style="ellipse;whiteSpace=wrap;html=1;" parent="1" vertex="1">
          <mxGeometry x="-517" y="395" width="120" height="80" as="geometry" />
        </mxCell>
        <mxCell id="Hfg-YcZ6ocwzMSronJTK-2" value="ネット上での対局" style="ellipse;whiteSpace=wrap;html=1;" parent="1" vertex="1">
          <mxGeometry x="-347" y="390" width="120" height="80" as="geometry" />
        </mxCell>
        <mxCell id="Hfg-YcZ6ocwzMSronJTK-4" value="" style="shape=image;verticalLabelPosition=bottom;labelBackgroundColor=default;verticalAlign=top;aspect=fixed;imageAspect=0;image=data:image/png,iVBORw0KGgoAAAANSUhEUgAAACgAAAB6CAMAAAD6ZuGjAAAAAXNSR0IArs4c6QAAAARnQU1BAACxjwv8YQUAAAA/UExURQAAAAAAAAAAAAAAAAAAAAAAAAAAAAAAAAAAAAAAAAAAAAAAAAAAAAAAAAAAAAAAAAAAAAAAAAAAAAAAAAAAALMlgi8AAAAVdFJOUwAwUK/PSP9w5wj3148Y30Boh5e/IK24EEAAAAAJcEhZcwAAFxEAABcRAcom8z8AAAENSURBVFhH7ZTbcoQgEERBSQvGzWWT///WFCwqDjOzVOVpq+a82TZHKUad+wd+oonAHGjC8wYsNGMJQEw0ZJiwvg8pA7ZpRDlhvbkwoCydAWWtPFfWxlPlUQjY6L2W9LE/8jPvSWY5nzhryhTPPXhN2QhVZYr4Oq8U5YLLfInKFHGZWFFJhFk5X4MHVJiV8Nek8E2Fzt055W2lwpL1yq0X5rBTckJWueGHJIVOySwtdHm3coe8erfwgLy7KCRKLwrJgQmH+qAZAeFMK41SFTZKj/WX3mw5lOIk79RPSRzkg/pxzhggprzlEbh/FkATASuqWFHFiipWVLGiihVVrKhiRRUrqlhRxYoqr1Dk+QOPswwfm6MgfQAAAABJRU5ErkJggg==;" parent="1" vertex="1">
          <mxGeometry x="-337" y="305" width="30.95" height="94.4" as="geometry" />
        </mxCell>
        <mxCell id="p54q13tocL-PzsMTaKkp-1" value="" style="shape=image;verticalLabelPosition=bottom;labelBackgroundColor=default;verticalAlign=top;aspect=fixed;imageAspect=0;image=data:image/png,iVBORw0KGgoAAAANSUhEUgAAACgAAAB6CAMAAAD6ZuGjAAAAAXNSR0IArs4c6QAAAARnQU1BAACxjwv8YQUAAAA/UExURQAAAAAAAAAAAAAAAAAAAAAAAAAAAAAAAAAAAAAAAAAAAAAAAAAAAAAAAAAAAAAAAAAAAAAAAAAAAAAAAAAAALMlgi8AAAAVdFJOUwAwUK/PSP9w5wj3148Y30Boh5e/IK24EEAAAAAJcEhZcwAAFxEAABcRAcom8z8AAAENSURBVFhH7ZTbcoQgEERBSQvGzWWT///WFCwqDjOzVOVpq+a82TZHKUad+wd+oonAHGjC8wYsNGMJQEw0ZJiwvg8pA7ZpRDlhvbkwoCydAWWtPFfWxlPlUQjY6L2W9LE/8jPvSWY5nzhryhTPPXhN2QhVZYr4Oq8U5YLLfInKFHGZWFFJhFk5X4MHVJiV8Nek8E2Fzt055W2lwpL1yq0X5rBTckJWueGHJIVOySwtdHm3coe8erfwgLy7KCRKLwrJgQmH+qAZAeFMK41SFTZKj/WX3mw5lOIk79RPSRzkg/pxzhggprzlEbh/FkATASuqWFHFiipWVLGiihVVrKhiRRUrqlhRxYoqr1Dk+QOPswwfm6MgfQAAAABJRU5ErkJggg==;" vertex="1" parent="1">
          <mxGeometry x="-807.95" y="325.6" width="30.95" height="94.4" as="geometry" />
        </mxCell>
      </root>
    </mxGraphModel>
  </diagram>
</mxfile>
